<?xml version="1.0" encoding="utf-8"?>
<!-- Generator: Adobe Illustrator 24.0.1, SVG Export Plug-In . SVG Version: 6.00 Build 0)  -->
<svg version="1.1" id="Publicdomainvectors.org" xmlns="http://www.w3.org/2000/svg" xmlns:xlink="http://www.w3.org/1999/xlink"
	 x="0px" y="0px" viewBox="0 0 792 612" style="enable-background:new 0 0 792 612;" xml:space="preserve">
<style type="text/css">
	.st0{opacity:0.88;fill:#E1E2E1;}
	.st1{fill:#EDEDED;}
	.st2{opacity:0.74;fill:#CECFCF;}
	.st3{opacity:0.46;fill:#D0D0D0;}
	.st4{opacity:0.57;fill:#EDEDED;}
	.st5{opacity:0.68;}
	.st6{fill:#C5C6C6;}
	.st7{fill:#E0E0E0;}
</style>
<g>
	<path class="st0" d="M39.1,612.1c-4.9-9.8-8.3-16.8-8.3-16.8l48.2-72.6l87,5.4l38.8,78c0,0-1.5,2.3-3.9,6L39.1,612.1L39.1,612.1z"
		/>
	<path class="st1" d="M0.1,612.1c0-62.6,0-234.3,0-234.3c12-13.4,20.4-22.7,20.4-22.7l156.9,33.2L227,540.7c0,0-34.4,38.2-64.2,71.4
		H0.1z"/>
	<path class="st2" d="M34.5,612.1c-10.4-4-22.1-8.6-34.4-13.3v-441c3-2.4,4.7-3.8,4.7-3.8l224.3,86.8l37,237.6
		c0,0-117,94.2-166,133.7L34.5,612.1L34.5,612.1z"/>
	<path class="st1" d="M167.5,0.1C244,46.4,329.5,98,329.5,98l-6.6,327.5l-287,158.1c0,0-14-8.5-35.8-21.6c0,0,0-421.8,0-561.9
		L167.5,0.1L167.5,0.1z"/>
	<path class="st3" d="M478.9,0.1c-18.2,86-82.6,390.2-82.6,390.2S45.2,504.7,0.1,519.4c0,0,0-294.9,0-519.3L478.9,0.1L478.9,0.1z"/>
	<path class="st4" d="M648.4,0.1c-61.1,140.2-166.1,381.1-166.1,381.1s-363,41-482.1,54.5c0,0,0-214.7,0-435.6
		C0.1,0.1,648.4,0.1,648.4,0.1z"/>
</g>
<g class="st5">
	<path class="st1" d="M795.3,0.1c-0.2,3.7-0.3,5.7-0.3,5.7L581,115.5c0,0-125.6-81.1-178.8-115.4L795.3,0.1L795.3,0.1z"/>
	<path class="st6" d="M736.3,0.1C719.7,72.8,704.3,140,704.3,140l-313.1,96.6L151.1,13.8c0,0,1.1-5,3.1-13.7
		C154.2,0.1,736.3,0.1,736.3,0.1z"/>
	<path class="st1" d="M677.3,0.1c-49.6,113.3-116.1,265-116.1,265l-419.1,46.6c0,0-74.4-101.1-142-192.9c0,0,0-52.2,0-118.6
		C0.1,0.1,677.3,0.1,677.3,0.1z"/>
	<path class="st7" d="M617.9,0.1c-84.4,119.4-255.9,362-255.9,362S153.2,342.9,0.1,328.8c0,0,0-150.3,0-328.7L617.9,0.1z"/>
</g>
</svg>
